<svg width="190" height="200" viewBox="0 0 190 200" fill="none" xmlns="http://www.w3.org/2000/svg">
<g clip-path="url(#clip0_2021_286)">
<path d="M53.6731 22.4907H1.49953C0.671362 22.4907 0 23.1626 0 23.9914V51.691C0 52.5198 0.671362 53.1917 1.49953 53.1917H53.6731C54.5013 53.1917 55.1726 52.5198 55.1726 51.691V23.9914C55.1726 23.1626 54.5013 22.4907 53.6731 22.4907Z" fill="#E6E6E6"/>
<path d="M53.2741 23.5591H1.95476C1.40265 23.5591 0.955078 24.007 0.955078 24.5596V51.1791C0.955078 51.7316 1.40265 52.1796 1.95476 52.1796H53.2741C53.8262 52.1796 54.2738 51.7316 54.2738 51.1791V24.5596C54.2738 24.007 53.8262 23.5591 53.2741 23.5591Z" fill="white"/>
<path d="M6.64123 34.9016C6.61166 34.8642 6.59102 34.8205 6.58089 34.7738C6.57075 34.7272 6.57139 34.6788 6.58275 34.6325C6.8533 33.4984 6.8533 32.3165 6.58275 31.1823C6.57143 31.136 6.57083 31.0876 6.58101 31.041C6.59119 30.9943 6.61187 30.9506 6.64147 30.9132C6.67043 30.8765 6.70734 30.8469 6.74943 30.8265C6.79151 30.8062 6.83767 30.7957 6.88439 30.7959H9.77673C9.85066 30.7961 9.92214 30.8225 9.97844 30.8704C10.0347 30.9184 10.0722 30.9848 10.0841 31.0578C10.2729 32.2845 10.2729 33.5329 10.0841 34.7595C10.0722 34.8326 10.0347 34.899 9.97844 34.9469C9.92214 34.9949 9.85066 35.0213 9.77673 35.0214H6.88415C6.83722 35.0213 6.79093 35.0104 6.74883 34.9897C6.70673 34.9689 6.66993 34.9388 6.64123 34.9016Z" fill="#8480C3"/>
<path d="M9.21869 32.354H7.69418C7.63739 32.3539 7.58295 32.3313 7.5428 32.2911C7.50264 32.2509 7.48005 32.1964 7.47998 32.1396V32.0488C7.48005 31.992 7.50264 31.9375 7.5428 31.8973C7.58295 31.8571 7.63739 31.8345 7.69418 31.8345H9.21869C9.27548 31.8345 9.32992 31.8571 9.37007 31.8973C9.41023 31.9375 9.43281 31.992 9.43287 32.0488V32.1399C9.43274 32.1967 9.41013 32.2511 9.36998 32.2912C9.32984 32.3313 9.27543 32.3539 9.21869 32.354Z" fill="white"/>
<path d="M9.21869 33.25H7.69418C7.63739 33.2499 7.58295 33.2273 7.5428 33.1871C7.50264 33.1469 7.48005 33.0924 7.47998 33.0356V32.9448C7.48005 32.888 7.50264 32.8335 7.5428 32.7933C7.58295 32.7531 7.63739 32.7305 7.69418 32.7305H9.21869C9.27548 32.7305 9.32992 32.7531 9.37007 32.7933C9.41023 32.8335 9.43281 32.888 9.43287 32.9448V33.0359C9.43274 33.0927 9.41013 33.1471 9.36998 33.1872C9.32984 33.2273 9.27543 33.2499 9.21869 33.25Z" fill="white"/>
<path d="M50.9924 26.9339H4.15511C4.13456 26.9339 4.11486 26.9257 4.10033 26.9112C4.0858 26.8966 4.07764 26.8769 4.07764 26.8563C4.07764 26.8358 4.0858 26.8161 4.10033 26.8015C4.11486 26.787 4.13456 26.7788 4.15511 26.7788H50.9924C51.0129 26.7788 51.0326 26.787 51.0472 26.8015C51.0617 26.8161 51.0699 26.8358 51.0699 26.8563C51.0699 26.8769 51.0617 26.8966 51.0472 26.9112C51.0326 26.9257 51.0129 26.9339 50.9924 26.9339Z" fill="#3F3D56"/>
<path d="M17.3939 49.8389C17.3733 49.8389 17.3536 49.8308 17.3391 49.8162C17.3246 49.8017 17.3164 49.7819 17.3164 49.7614V24.2709C17.3164 24.2503 17.3246 24.2306 17.3391 24.2161C17.3536 24.2015 17.3733 24.1934 17.3939 24.1934C17.4144 24.1934 17.4341 24.2015 17.4487 24.2161C17.4632 24.2306 17.4714 24.2503 17.4714 24.2709V49.7614C17.4714 49.7819 17.4632 49.8017 17.4487 49.8162C17.4341 49.8308 17.4144 49.8389 17.3939 49.8389Z" fill="#3F3D56"/>
<path d="M29.0838 49.8389C29.0633 49.8389 29.0436 49.8308 29.029 49.8162C29.0145 49.8017 29.0063 49.7819 29.0063 49.7614V24.2709C29.0063 24.2503 29.0145 24.2306 29.029 24.2161C29.0436 24.2015 29.0633 24.1934 29.0838 24.1934C29.1044 24.1934 29.1241 24.2015 29.1386 24.2161C29.1531 24.2306 29.1613 24.2503 29.1613 24.2709V49.7614C29.1613 49.7819 29.1531 49.8017 29.1386 49.8162C29.1241 49.8308 29.1044 49.8389 29.0838 49.8389Z" fill="#3F3D56"/>
<path d="M40.7733 49.8389C40.7527 49.8389 40.733 49.8308 40.7185 49.8162C40.704 49.8017 40.6958 49.7819 40.6958 49.7614V24.2709C40.6958 24.2503 40.704 24.2306 40.7185 24.2161C40.733 24.2015 40.7527 24.1934 40.7733 24.1934C40.7938 24.1934 40.8135 24.2015 40.8281 24.2161C40.8426 24.2306 40.8507 24.2503 40.8507 24.2709V49.7614C40.8507 49.7819 40.8426 49.8017 40.8281 49.8162C40.8135 49.8308 40.7938 49.8389 40.7733 49.8389Z" fill="#3F3D56"/>
<path d="M38.9866 38.9601H36.158C36.0657 38.9597 35.9773 38.9228 35.912 38.8575C35.8468 38.7922 35.81 38.7037 35.8096 38.6114V35.2705C35.81 35.1782 35.8468 35.0897 35.912 35.0244C35.9773 34.9591 36.0657 34.9223 36.158 34.9219H38.9866C39.0789 34.9223 39.1672 34.9591 39.2325 35.0244C39.2977 35.0897 39.3346 35.1782 39.335 35.2705V38.6114C39.3346 38.7037 39.2977 38.7922 39.2325 38.8575C39.1672 38.9228 39.0789 38.9597 38.9866 38.9601Z" fill="#424057"/>
<path d="M33.4895 40.1993H30.6609C30.5686 40.1989 30.4802 40.1621 30.415 40.0968C30.3497 40.0315 30.3129 39.943 30.3125 39.8507V36.5098C30.3129 36.4174 30.3497 36.329 30.415 36.2637C30.4802 36.1984 30.5686 36.1615 30.6609 36.1611H33.4895C33.5818 36.1615 33.6702 36.1984 33.7354 36.2637C33.8007 36.329 33.8375 36.4174 33.8379 36.5098V39.8507C33.8375 39.943 33.8007 40.0315 33.7354 40.0968C33.6702 40.1621 33.5818 40.1989 33.4895 40.1993Z" fill="#E6E6E6"/>
<path d="M21.6453 45.4679H18.8167C18.7244 45.4675 18.636 45.4306 18.5707 45.3653C18.5055 45.3 18.4687 45.2116 18.4683 45.1192V41.7784C18.4687 41.686 18.5055 41.5975 18.5707 41.5322C18.636 41.4669 18.7244 41.4301 18.8167 41.4297H21.6453C21.7375 41.4301 21.8259 41.4669 21.8912 41.5322C21.9564 41.5975 21.9933 41.686 21.9937 41.7784V45.1192C21.9933 45.2116 21.9564 45.3 21.8912 45.3653C21.8259 45.4306 21.7375 45.4675 21.6453 45.4679Z" fill="#E6E6E6"/>
<path d="M7.32299 41.0519H4.49438C4.4021 41.0515 4.31372 41.0146 4.24847 40.9493C4.18322 40.884 4.14639 40.7955 4.146 40.7032V37.3623C4.14639 37.27 4.18322 37.1815 4.24847 37.1162C4.31372 37.0509 4.4021 37.0141 4.49438 37.0137H7.32299C7.41527 37.0141 7.50366 37.0509 7.56891 37.1162C7.63416 37.1815 7.67099 37.27 7.67138 37.3623V40.7032C7.67099 40.7955 7.63416 40.884 7.56891 40.9493C7.50366 41.0146 7.41527 41.0515 7.32299 41.0519Z" fill="#424057"/>
<path d="M15.2966 34.9313H12.468C12.3757 34.9309 12.2874 34.894 12.2221 34.8287C12.1569 34.7634 12.12 34.6749 12.1196 34.5826V31.2417C12.12 31.1494 12.1569 31.0609 12.2221 30.9956C12.2874 30.9303 12.3757 30.8935 12.468 30.8931H15.2966C15.3889 30.8935 15.4773 30.9303 15.5425 30.9956C15.6078 31.0609 15.6446 31.1494 15.645 31.2417V34.5826C15.6446 34.6749 15.6078 34.7634 15.5425 34.8287C15.4773 34.894 15.3889 34.9309 15.2966 34.9313Z" fill="#E6E6E6"/>
<path d="M12.9811 25.6652H8.56845C8.48632 25.6652 8.40756 25.6326 8.34949 25.5744C8.29142 25.5163 8.25879 25.4375 8.25879 25.3553C8.25879 25.2731 8.29142 25.1943 8.34949 25.1362C8.40756 25.0781 8.48632 25.0454 8.56845 25.0454H12.9811C13.0632 25.0454 13.1419 25.0781 13.2 25.1362C13.2581 25.1943 13.2907 25.2731 13.2907 25.3553C13.2907 25.4375 13.2581 25.5163 13.2 25.5744C13.1419 25.6326 13.0632 25.6652 12.9811 25.6652Z" fill="#E6E6E6"/>
<path d="M25.4449 25.6652H21.0323C20.9502 25.6652 20.8714 25.6326 20.8134 25.5744C20.7553 25.5163 20.7227 25.4375 20.7227 25.3553C20.7227 25.2731 20.7553 25.1943 20.8134 25.1362C20.8714 25.0781 20.9502 25.0454 21.0323 25.0454H25.4449C25.5271 25.0454 25.6058 25.0781 25.6639 25.1362C25.722 25.1943 25.7546 25.2731 25.7546 25.3553C25.7546 25.4375 25.722 25.5163 25.6639 25.5744C25.6058 25.6326 25.5271 25.6652 25.4449 25.6652Z" fill="#E6E6E6"/>
<path d="M37.1349 25.6652H32.7223C32.6401 25.6652 32.5614 25.6326 32.5033 25.5744C32.4452 25.5163 32.4126 25.4375 32.4126 25.3553C32.4126 25.2731 32.4452 25.1943 32.5033 25.1362C32.5614 25.0781 32.6401 25.0454 32.7223 25.0454H37.1349C37.217 25.0454 37.2958 25.0781 37.3538 25.1362C37.4119 25.1943 37.4445 25.2731 37.4445 25.3553C37.4445 25.4375 37.4119 25.5163 37.3538 25.5744C37.2958 25.6326 37.217 25.6652 37.1349 25.6652Z" fill="#E6E6E6"/>
<path d="M48.0504 25.6652H43.6378C43.5557 25.6652 43.4769 25.6326 43.4188 25.5744C43.3608 25.5163 43.3281 25.4375 43.3281 25.3553C43.3281 25.2731 43.3608 25.1943 43.4188 25.1362C43.4769 25.0781 43.5557 25.0454 43.6378 25.0454H48.0504C48.1325 25.0454 48.2113 25.0781 48.2694 25.1362C48.3274 25.1943 48.3601 25.2731 48.3601 25.3553C48.3601 25.4375 48.3274 25.5163 48.2694 25.5744C48.2113 25.6326 48.1325 25.6652 48.0504 25.6652Z" fill="#E6E6E6"/>
<path d="M50.8313 34.2335H48.0027C47.9104 34.2331 47.822 34.1962 47.7568 34.1309C47.6915 34.0656 47.6547 33.9772 47.6543 33.8848V30.544C47.6547 30.4516 47.6915 30.3632 47.7568 30.2979C47.822 30.2326 47.9104 30.1957 48.0027 30.1953H50.8313C50.9236 30.1957 51.012 30.2326 51.0772 30.2979C51.1425 30.3632 51.1793 30.4516 51.1797 30.544V33.8848C51.1793 33.9772 51.1425 34.0656 51.0772 34.1309C51.012 34.1962 50.9236 34.2331 50.8313 34.2335Z" fill="#E6E6E6"/>
<path d="M48.5862 40.1993H45.7576C45.6653 40.1989 45.5769 40.1621 45.5117 40.0968C45.4464 40.0315 45.4096 39.943 45.4092 39.8507V36.5098C45.4096 36.4174 45.4464 36.329 45.5117 36.2637C45.5769 36.1984 45.6653 36.1615 45.7576 36.1611H48.5862C48.6785 36.1615 48.7668 36.1984 48.8321 36.2637C48.8973 36.329 48.9342 36.4174 48.9346 36.5098V39.8507C48.9342 39.943 48.8973 40.0315 48.8321 40.0968C48.7668 40.1621 48.6785 40.1989 48.5862 40.1993Z" fill="#E6E6E6"/>
<path d="M11.5319 44.6926C11.5023 44.6552 11.4816 44.6115 11.4715 44.5648C11.4614 44.5182 11.462 44.4699 11.4734 44.4235C11.7439 43.2894 11.7439 42.1075 11.4734 40.9734C11.4621 40.927 11.4615 40.8786 11.4716 40.832C11.4818 40.7854 11.5025 40.7416 11.5321 40.7042C11.5611 40.6675 11.598 40.6379 11.6401 40.6176C11.6821 40.5972 11.7283 40.5868 11.775 40.5869H14.6674C14.7413 40.5871 14.8128 40.6135 14.8691 40.6614C14.9254 40.7094 14.9628 40.7758 14.9748 40.8488C15.1636 42.0755 15.1636 43.3239 14.9748 44.5506C14.9628 44.6236 14.9254 44.69 14.8691 44.7379C14.8128 44.7859 14.7413 44.8123 14.6674 44.8124H11.7748C11.7278 44.8123 11.6816 44.8014 11.6395 44.7807C11.5974 44.7599 11.5606 44.7298 11.5319 44.6926Z" fill="#8480C3"/>
<path d="M14.1093 42.145H12.5848C12.528 42.1449 12.4736 42.1223 12.4334 42.0821C12.3933 42.042 12.3707 41.9875 12.3706 41.9306V41.8398C12.3707 41.783 12.3933 41.7285 12.4334 41.6883C12.4736 41.6482 12.528 41.6256 12.5848 41.6255H14.1093C14.1661 41.6256 14.2205 41.6482 14.2607 41.6883C14.3008 41.7285 14.3234 41.783 14.3235 41.8398V41.9309C14.3234 41.9877 14.3008 42.0421 14.2606 42.0822C14.2205 42.1224 14.1661 42.1449 14.1093 42.145Z" fill="white"/>
<path d="M14.1093 43.041H12.5848C12.528 43.0409 12.4736 43.0183 12.4334 42.9781C12.3933 42.9379 12.3707 42.8835 12.3706 42.8266V42.7358C12.3707 42.679 12.3933 42.6245 12.4334 42.5843C12.4736 42.5442 12.528 42.5216 12.5848 42.5215H14.1093C14.1661 42.5216 14.2205 42.5442 14.2607 42.5843C14.3008 42.6245 14.3234 42.679 14.3235 42.7358V42.8269C14.3234 42.8837 14.3008 42.9381 14.2606 42.9782C14.2205 43.0183 14.1661 43.0409 14.1093 43.041Z" fill="white"/>
<path d="M23.3063 36.823C23.2767 36.7856 23.2561 36.7418 23.2459 36.6952C23.2358 36.6486 23.2364 36.6002 23.2478 36.5539C23.5183 35.4198 23.5183 34.2378 23.2478 33.1037C23.2365 33.0574 23.2359 33.009 23.246 32.9624C23.2562 32.9157 23.2769 32.872 23.3065 32.8346C23.3355 32.7979 23.3724 32.7682 23.4145 32.7479C23.4566 32.7276 23.5027 32.7171 23.5494 32.7173H26.4418C26.5157 32.7174 26.5872 32.7438 26.6435 32.7918C26.6998 32.8398 26.7372 32.9062 26.7492 32.9792C26.938 34.2059 26.938 35.4542 26.7492 36.6809C26.7372 36.7539 26.6998 36.8203 26.6435 36.8683C26.5872 36.9163 26.5157 36.9427 26.4418 36.9428H23.5492C23.5023 36.9427 23.456 36.9318 23.4139 36.911C23.3718 36.8903 23.335 36.8602 23.3063 36.823Z" fill="#8480C3"/>
<path d="M25.8837 34.2754H24.3592C24.3024 34.2753 24.248 34.2527 24.2078 34.2125C24.1677 34.1723 24.1451 34.1178 24.145 34.061V33.9702C24.1451 33.9134 24.1677 33.8589 24.2078 33.8187C24.248 33.7785 24.3024 33.7559 24.3592 33.7559H25.8837C25.9405 33.7559 25.995 33.7785 26.0351 33.8187C26.0753 33.8589 26.0978 33.9134 26.0979 33.9702V34.0613C26.0978 34.118 26.0752 34.1725 26.035 34.2126C25.9949 34.2527 25.9405 34.2753 25.8837 34.2754Z" fill="white"/>
<path d="M25.8837 35.1714H24.3592C24.3024 35.1713 24.248 35.1487 24.2078 35.1085C24.1677 35.0683 24.1451 35.0138 24.145 34.957V34.8662C24.1451 34.8094 24.1677 34.7549 24.2078 34.7147C24.248 34.6745 24.3024 34.6519 24.3592 34.6519H25.8837C25.9405 34.6519 25.995 34.6745 26.0351 34.7147C26.0753 34.7549 26.0978 34.8094 26.0979 34.8662V34.9573C26.0978 35.014 26.0752 35.0685 26.035 35.1086C25.9949 35.1487 25.9405 35.1713 25.8837 35.1714Z" fill="white"/>
<path d="M31.3444 33.1863C31.3148 33.1488 31.2941 33.1051 31.284 33.0585C31.2739 33.0118 31.2745 32.9635 31.2859 32.9172C31.5564 31.783 31.5564 30.6011 31.2859 29.467C31.2746 29.4206 31.274 29.3723 31.2841 29.3256C31.2943 29.279 31.315 29.2353 31.3446 29.1979C31.3736 29.1612 31.4105 29.1315 31.4526 29.1112C31.4946 29.0909 31.5408 29.0804 31.5875 29.0806H34.4799C34.5538 29.0807 34.6253 29.1071 34.6816 29.1551C34.7379 29.203 34.7753 29.2694 34.7873 29.3424C34.9761 30.5691 34.9761 31.8175 34.7873 33.0442C34.7753 33.1172 34.7379 33.1836 34.6816 33.2316C34.6253 33.2795 34.5538 33.3059 34.4799 33.3061H31.5873C31.5403 33.306 31.4941 33.2951 31.452 33.2743C31.4099 33.2536 31.3731 33.2235 31.3444 33.1863Z" fill="#8480C3"/>
<path d="M33.9218 30.6386H32.3973C32.3405 30.6386 32.2861 30.616 32.2459 30.5758C32.2058 30.5356 32.1832 30.4811 32.1831 30.4243V30.3335C32.1832 30.2767 32.2058 30.2222 32.2459 30.182C32.2861 30.1418 32.3405 30.1192 32.3973 30.1191H33.9218C33.9786 30.1192 34.033 30.1418 34.0732 30.182C34.1133 30.2222 34.1359 30.2767 34.136 30.3335V30.4245C34.1359 30.4813 34.1133 30.5357 34.0731 30.5759C34.033 30.616 33.9786 30.6386 33.9218 30.6386Z" fill="white"/>
<path d="M33.9218 31.5346H32.3973C32.3405 31.5346 32.2861 31.512 32.2459 31.4718C32.2058 31.4316 32.1832 31.3771 32.1831 31.3203V31.2295C32.1832 31.1727 32.2058 31.1182 32.2459 31.078C32.2861 31.0378 32.3405 31.0152 32.3973 31.0151H33.9218C33.9786 31.0152 34.033 31.0378 34.0732 31.078C34.1133 31.1182 34.1359 31.1727 34.136 31.2295V31.3205C34.1359 31.3773 34.1133 31.4317 34.0731 31.4719C34.033 31.512 33.9786 31.5346 33.9218 31.5346Z" fill="white"/>
<path d="M42.589 33.6707C42.5594 33.6332 42.5388 33.5895 42.5286 33.5429C42.5185 33.4962 42.5191 33.4479 42.5305 33.4015C42.8011 32.2674 42.8011 31.0855 42.5305 29.9514C42.5192 29.905 42.5186 29.8567 42.5288 29.81C42.5389 29.7634 42.5596 29.7197 42.5892 29.6822C42.6182 29.6455 42.6551 29.6159 42.6972 29.5956C42.7393 29.5753 42.7854 29.5648 42.8321 29.5649H45.7245C45.7984 29.5651 45.8699 29.5915 45.9262 29.6395C45.9825 29.6874 46.0199 29.7538 46.0319 29.8268C46.2207 31.0535 46.2207 32.3019 46.0319 33.5286C46.0199 33.6016 45.9825 33.668 45.9262 33.716C45.8699 33.7639 45.7984 33.7903 45.7245 33.7905H42.8319C42.785 33.7903 42.7387 33.7795 42.6966 33.7587C42.6545 33.7379 42.6177 33.7078 42.589 33.6707Z" fill="#8480C3"/>
<path d="M45.1664 31.123H43.6419C43.5851 31.1229 43.5307 31.1003 43.4906 31.0602C43.4504 31.02 43.4278 30.9655 43.4277 30.9087V30.8179C43.4278 30.761 43.4504 30.7066 43.4906 30.6664C43.5307 30.6262 43.5851 30.6036 43.6419 30.6035H45.1664C45.2232 30.6036 45.2777 30.6262 45.3178 30.6664C45.358 30.7066 45.3806 30.761 45.3806 30.8179V30.9089C45.3805 30.9657 45.3579 31.0201 45.3177 31.0602C45.2776 31.1004 45.2232 31.1229 45.1664 31.123Z" fill="white"/>
<path d="M45.1664 32.019H43.6419C43.5851 32.0189 43.5307 31.9963 43.4906 31.9562C43.4504 31.916 43.4278 31.8615 43.4277 31.8047V31.7139C43.4278 31.657 43.4504 31.6026 43.4906 31.5624C43.5307 31.5222 43.5851 31.4996 43.6419 31.4995H45.1664C45.2232 31.4996 45.2777 31.5222 45.3178 31.5624C45.358 31.6026 45.3806 31.657 45.3806 31.7139V31.8049C45.3805 31.8617 45.3579 31.9161 45.3177 31.9562C45.2776 31.9964 45.2232 32.0189 45.1664 32.019Z" fill="white"/>
<path d="M113.265 103.925C113.264 104.343 113.354 104.757 113.527 105.137C113.7 105.518 113.953 105.856 114.268 106.13C114.583 106.405 114.954 106.608 115.355 106.726C115.755 106.844 116.177 106.875 116.59 106.816C116.972 107.692 117.601 108.438 118.4 108.962C119.199 109.486 120.134 109.765 121.089 109.765C122.39 109.765 123.638 109.247 124.559 108.327C125.479 107.406 125.996 106.157 125.996 104.854V100.599C125.996 99.5044 125.108 99.1377 124.014 99.1377H118.164C117.069 99.1377 116.182 99.5041 116.182 100.599V101.005C115.409 101.006 114.667 101.314 114.12 101.862C113.573 102.409 113.266 103.151 113.265 103.925ZM114.06 103.925C114.061 103.362 114.285 102.823 114.683 102.424C115.08 102.026 115.62 101.802 116.182 101.802V104.853C116.182 105.253 116.231 105.652 116.327 106.04C116.279 106.044 116.231 106.048 116.182 106.048C115.62 106.047 115.081 105.823 114.683 105.425C114.285 105.028 114.061 104.488 114.06 103.925Z" fill="#8480C3"/>
<path d="M121.078 100.48C123.091 100.48 124.724 100.247 124.724 99.9592C124.724 99.6714 123.091 99.438 121.078 99.438C119.064 99.438 117.432 99.6714 117.432 99.9592C117.432 100.247 119.064 100.48 121.078 100.48Z" fill="#2F2E41"/>
<path d="M112.997 187.224H107.464V194.522H112.997V187.224Z" fill="#ED9DA0"/>
<path d="M108.409 199.558H120.169C121.18 199.557 122.178 199.329 123.09 198.892L125.258 197.849C125.497 197.734 125.695 197.549 125.826 197.319C125.957 197.088 126.014 196.823 125.99 196.559C125.967 196.295 125.863 196.044 125.694 195.841C125.524 195.637 125.297 195.49 125.041 195.419L120.568 194.18L112.917 190.156L112.911 190.185C112.768 190.911 112.546 192.006 112.518 192.073C111.733 192.973 110.927 193.387 110.122 193.306C108.717 193.163 107.784 191.54 107.775 191.524L107.768 191.511L107.753 191.513C107.611 191.519 107.471 191.557 107.346 191.626C107.221 191.694 107.113 191.79 107.03 191.907C106.71 192.391 106.905 193.135 106.938 193.248C106.554 193.623 106.382 195.721 106.369 195.891C105.814 196.479 105.55 197.045 105.585 197.572C105.615 197.826 105.698 198.07 105.829 198.29C105.96 198.509 106.135 198.698 106.344 198.845C106.931 199.312 107.659 199.564 108.409 199.56V199.558Z" fill="#424057"/>
<path d="M68.9372 190.903L74.2495 192.45L76.2864 185.442L70.9741 183.896L68.9372 190.903Z" fill="#ED9DA0"/>
<path d="M68.4397 196.003L79.7319 199.291C80.7032 199.572 81.725 199.633 82.7227 199.468L85.0957 199.072C85.3569 199.029 85.5987 198.906 85.7886 198.721C85.9784 198.536 86.1075 198.298 86.1584 198.038C86.2094 197.778 86.1798 197.508 86.0737 197.265C85.9676 197.022 85.79 196.817 85.5645 196.678L81.6158 194.239L75.3912 188.236L75.3777 188.261C75.0391 188.917 74.5183 189.907 74.4735 189.963C73.4691 190.608 72.5794 190.78 71.8291 190.477C70.5203 189.948 70.0772 188.128 70.0727 188.11L70.0691 188.096L70.0552 188.094C69.9166 188.059 69.7719 188.057 69.6325 188.088C69.493 188.119 69.3625 188.181 69.2509 188.27C68.808 188.645 68.7883 189.414 68.7878 189.531C68.3145 189.785 67.5632 191.751 67.5035 191.91C66.8064 192.32 66.3956 192.789 66.2821 193.305C66.24 193.557 66.2516 193.815 66.3163 194.062C66.3809 194.309 66.497 194.54 66.657 194.739C67.0897 195.352 67.7187 195.798 68.4397 196.003Z" fill="#424057"/>
<path d="M86.73 56.0724C86.7303 54.4086 87.1914 52.7775 88.0621 51.3602C88.9327 49.9428 90.1788 48.7946 91.662 48.0432C93.1452 47.2917 94.8075 46.9664 96.4644 47.1033C98.1212 47.2401 99.7077 47.8339 101.048 48.8186C102.388 49.8033 103.429 51.1404 104.055 52.6814C104.682 54.2225 104.87 55.9072 104.597 57.5485C104.325 59.1898 103.604 60.7235 102.513 61.9793C101.423 63.235 100.006 64.1637 98.4196 64.6623L96.6809 76.1625L87.8169 68.77C89.0256 67.1784 90.0155 65.4316 90.76 63.5765C89.5212 62.7564 88.5048 61.6418 87.8019 60.3323C87.099 59.0228 86.7314 57.5594 86.732 56.0729L86.73 56.0724Z" fill="#ED9DA0"/>
<path d="M83.1806 100.5L81.8822 82.3088C81.7696 80.7311 81.9688 79.1468 82.4686 77.6463L86.3174 66.0947L97.6505 69.7377L102.433 80.6867L105.037 85.4655C105.614 86.5247 105.833 87.7425 105.661 88.9367C105.49 90.1309 104.936 91.2373 104.084 92.0905L102.433 93.743L104.734 102.191L104.492 102.183L104.817 102.225C104.817 102.225 120.204 148.553 119.652 187.952H99.9011L98.7292 142.216L95.2983 189.727L69.272 188.227L83.1796 100.5H83.1806Z" fill="#E6E6E6"/>
<path d="M83.8424 67.8992C83.8424 67.8992 84.2625 71.0882 88.1538 71.1925L96.0473 71.4039C96.0473 71.4039 89.3744 55.1518 92.119 56.9827C94.8637 58.8136 102.179 51.1379 102.179 51.1379L104.338 55.1898C104.338 55.1898 109.495 53.3207 103.78 48.7435C103.78 48.7435 96.9598 43.466 89.719 46.6355C82.4783 49.805 83.8424 67.8992 83.8424 67.8992Z" fill="#424057"/>
<path d="M115.764 104.086C115.868 102.055 113.967 100.307 111.515 100.179C110.876 100.134 110.235 100.217 109.628 100.423C109.021 100.629 108.462 100.954 107.981 101.378L107.926 101.375L93.3918 99.8692L94.4819 85.433C94.8853 82.6404 94.1021 79.8263 91.3542 79.1937C90.558 79.0104 89.7308 79.0096 88.9343 79.1914C88.1378 79.3733 87.3927 79.7329 86.7548 80.2436C86.1168 80.7543 85.6024 81.4027 85.2502 82.1404C84.898 82.8781 84.717 83.686 84.7208 84.5035L84.804 102.687C84.8067 103.302 84.9304 103.909 85.1681 104.476C85.4058 105.042 85.7528 105.556 86.1892 105.989C86.6256 106.421 87.1429 106.762 87.7114 106.994C88.28 107.226 88.8886 107.343 89.5025 107.339L107.743 105.975C108.176 106.447 108.7 106.828 109.282 107.096C109.864 107.363 110.494 107.512 111.134 107.533C113.586 107.66 115.659 106.116 115.764 104.086L115.764 104.086Z" fill="#ED9DA0"/>
<path d="M95.88 79.0604L95.0052 95.5296L82.8408 94.7042L84.9921 77.5752" fill="#E6E6E6"/>
<path d="M140.857 199.899L51.3954 199.999C51.2915 199.999 51.1917 199.958 51.1182 199.884C51.0447 199.81 51.0034 199.711 51.0034 199.607C51.0034 199.503 51.0447 199.403 51.1182 199.329C51.1917 199.256 51.2915 199.214 51.3954 199.214L140.857 199.114C140.961 199.114 141.061 199.156 141.134 199.229C141.208 199.303 141.249 199.403 141.249 199.507C141.249 199.611 141.208 199.71 141.134 199.784C141.061 199.858 140.961 199.899 140.857 199.899Z" fill="#E6E6E6"/>
<path d="M168.155 49.2928L145.912 55.0248C145.157 55.2184 144.357 55.1045 143.686 54.7082C143.015 54.3119 142.529 53.6655 142.334 52.9108L135.608 26.7683C135.414 26.0132 135.528 25.2121 135.924 24.5409C136.32 23.8696 136.966 23.383 137.72 23.1878L158.414 17.855L163.71 20.2279L170.267 45.7131C170.46 46.4681 170.346 47.2689 169.95 47.94C169.554 48.6111 168.908 49.0976 168.155 49.2928Z" fill="#E6E6E6"/>
<path d="M137.932 24.0076C137.395 24.1466 136.935 24.4931 136.653 24.971C136.371 25.449 136.29 26.0193 136.428 26.557L143.154 52.6996C143.293 53.237 143.64 53.6972 144.117 53.9795C144.595 54.2617 145.165 54.3428 145.702 54.2051L167.945 48.4721C168.482 48.333 168.942 47.9866 169.224 47.5086C169.506 47.0307 169.587 46.4603 169.449 45.9226L162.993 20.833L158.338 18.7485L137.932 24.0076Z" fill="white"/>
<path d="M163.654 20.3637L160.211 21.2508C160.086 21.283 159.957 21.2903 159.829 21.2724C159.702 21.2544 159.58 21.2115 159.469 21.1461C159.358 21.0807 159.261 20.9941 159.184 20.8912C159.107 20.7884 159.051 20.6713 159.019 20.5467L158.364 18.0023C158.361 17.991 158.362 17.9792 158.365 17.9681C158.369 17.957 158.375 17.9471 158.384 17.9396C158.393 17.9321 158.404 17.9273 158.416 17.9258C158.427 17.9243 158.439 17.9261 158.449 17.931L163.663 20.2484C163.675 20.2535 163.684 20.2622 163.691 20.2731C163.697 20.284 163.7 20.2967 163.699 20.3094C163.698 20.322 163.693 20.3341 163.685 20.3438C163.677 20.3535 163.666 20.3605 163.654 20.3637Z" fill="#E6E6E6"/>
<path d="M161.843 42.6878L151.717 45.2978C151.591 45.3302 151.458 45.3113 151.346 45.2452C151.234 45.1792 151.153 45.0715 151.121 44.9457C151.089 44.82 151.107 44.6865 151.173 44.5747C151.239 44.4629 151.347 44.382 151.473 44.3496L161.598 41.7396C161.661 41.7216 161.727 41.7164 161.792 41.7243C161.857 41.7322 161.919 41.753 161.976 41.7855C162.033 41.818 162.082 41.8615 162.122 41.9135C162.162 41.9656 162.19 42.025 162.207 42.0883C162.223 42.1517 162.226 42.2176 162.217 42.2823C162.207 42.347 162.185 42.4092 162.151 42.465C162.117 42.5209 162.072 42.5694 162.019 42.6077C161.966 42.6459 161.906 42.6732 161.842 42.6878H161.843Z" fill="#CCCCCC"/>
<path d="M164.209 43.7845L152.128 46.898C152.003 46.9303 151.869 46.9114 151.758 46.8454C151.646 46.7794 151.565 46.6717 151.533 46.5459C151.5 46.4202 151.519 46.2867 151.585 46.1749C151.651 46.0631 151.759 45.9821 151.884 45.9498L163.965 42.8363C164.027 42.8202 164.092 42.8166 164.156 42.8256C164.219 42.8347 164.28 42.8561 164.336 42.8888C164.391 42.9215 164.439 42.9648 164.478 43.0162C164.517 43.0676 164.545 43.126 164.561 43.1883C164.577 43.2506 164.58 43.3154 164.571 43.379C164.562 43.4427 164.541 43.5039 164.508 43.5593C164.476 43.6147 164.432 43.663 164.381 43.7017C164.33 43.7403 164.271 43.7684 164.209 43.7845Z" fill="#CCCCCC"/>
<path d="M147.583 48.4406C148.538 48.4406 149.312 47.6659 149.312 46.7103C149.312 45.7547 148.538 44.98 147.583 44.98C146.629 44.98 145.854 45.7547 145.854 46.7103C145.854 47.6659 146.629 48.4406 147.583 48.4406Z" fill="#8480C3"/>
<path d="M160.767 38.1593L147.317 41.6242C146.928 41.7238 146.516 41.6651 146.171 41.4608C145.825 41.2566 145.575 40.9236 145.474 40.5349L142.656 29.5771C142.557 29.1883 142.616 28.7759 142.82 28.4303C143.024 28.0848 143.356 27.8343 143.744 27.7338L157.194 24.2691C157.582 24.1695 157.994 24.2282 158.34 24.4324C158.685 24.6366 158.936 24.9696 159.036 25.3584L161.855 36.3159C161.954 36.7046 161.895 37.1169 161.691 37.4624C161.487 37.8079 161.155 38.0584 160.767 38.159V38.1593Z" fill="white"/>
<path d="M160.767 38.1593L147.317 41.6242C146.928 41.7238 146.516 41.6651 146.171 41.4608C145.825 41.2566 145.575 40.9236 145.474 40.5349L142.656 29.5771C142.557 29.1883 142.616 28.7759 142.82 28.4303C143.024 28.0848 143.356 27.8343 143.744 27.7338L157.194 24.2691C157.582 24.1695 157.994 24.2282 158.34 24.4324C158.685 24.6366 158.936 24.9696 159.036 25.3584L161.855 36.3159C161.954 36.7046 161.895 37.1169 161.691 37.4624C161.487 37.8079 161.155 38.0584 160.767 38.159V38.1593ZM143.789 27.9063C143.446 27.9951 143.153 28.2163 142.973 28.5214C142.793 28.8265 142.741 29.1907 142.829 29.5339L145.647 40.4914C145.736 40.8344 145.957 41.1282 146.262 41.3083C146.567 41.4884 146.931 41.5401 147.274 41.4521L160.722 37.9867C161.065 37.8979 161.358 37.6767 161.538 37.3716C161.718 37.0664 161.77 36.7024 161.682 36.3591L158.864 25.4016C158.775 25.0586 158.554 24.7649 158.249 24.5847C157.944 24.4046 157.58 24.3529 157.237 24.4409L143.789 27.9063Z" fill="#E6E6E6"/>
<path d="M156.511 27.9524L149.723 29.701C149.664 29.7176 149.6 29.7111 149.546 29.6827C149.491 29.6544 149.449 29.6063 149.429 29.5482C149.419 29.5178 149.415 29.4858 149.419 29.454C149.422 29.4223 149.431 29.3916 149.447 29.3637C149.462 29.3358 149.483 29.3113 149.508 29.2918C149.534 29.2723 149.563 29.2582 149.593 29.2503L156.503 27.4702C156.782 27.6118 156.708 27.9012 156.511 27.9522V27.9524Z" fill="#F2F2F2"/>
<path d="M156.817 29.1446L150.029 30.8932C149.97 30.9098 149.907 30.9032 149.852 30.8748C149.797 30.8464 149.755 30.7982 149.735 30.7401C149.725 30.7097 149.722 30.6777 149.725 30.6459C149.728 30.6142 149.737 30.5834 149.753 30.5555C149.768 30.5276 149.789 30.5032 149.815 30.4837C149.84 30.4642 149.869 30.4501 149.9 30.4422L156.809 28.6621C157.088 28.8037 157.015 29.0931 156.817 29.1441V29.1446Z" fill="#F2F2F2"/>
<path d="M148.736 31.9481L146.665 32.4816C146.597 32.499 146.525 32.4888 146.465 32.4532C146.405 32.4177 146.362 32.3597 146.344 32.292L145.715 29.8458C145.697 29.7781 145.708 29.7063 145.743 29.6461C145.779 29.5859 145.837 29.5423 145.904 29.5249L147.976 28.9912C148.044 28.9738 148.115 28.9841 148.175 29.0196C148.235 29.0551 148.279 29.1131 148.297 29.1807L148.926 31.6269C148.943 31.6946 148.933 31.7664 148.897 31.8266C148.862 31.8868 148.804 31.9306 148.736 31.9481Z" fill="#8480C3"/>
<path d="M157.425 31.5884L147.066 34.2572C147.007 34.2738 146.943 34.2673 146.889 34.2389C146.834 34.2106 146.792 34.1625 146.771 34.1044C146.762 34.074 146.758 34.0419 146.761 34.0102C146.765 33.9785 146.774 33.9477 146.79 33.9198C146.805 33.8919 146.826 33.8674 146.851 33.8479C146.876 33.8285 146.905 33.8144 146.936 33.8065L157.417 31.1064C157.696 31.248 157.623 31.5374 157.425 31.5884Z" fill="#F2F2F2"/>
<path d="M157.732 32.7808L147.373 35.4496C147.313 35.4662 147.25 35.4597 147.195 35.4313C147.14 35.4029 147.099 35.3549 147.078 35.2968C147.068 35.2664 147.065 35.2343 147.068 35.2026C147.071 35.1709 147.081 35.1401 147.096 35.1122C147.112 35.0843 147.133 35.0599 147.158 35.0404C147.183 35.0209 147.212 35.0068 147.243 34.9989L157.725 32.2988C158.004 32.4404 157.93 32.7298 157.732 32.7808H157.732Z" fill="#F2F2F2"/>
<path d="M158.038 33.9717L147.679 36.6405C147.619 36.6571 147.556 36.6506 147.501 36.6222C147.447 36.5939 147.405 36.5458 147.384 36.4877C147.374 36.4573 147.371 36.4253 147.374 36.3935C147.377 36.3618 147.387 36.331 147.402 36.3031C147.418 36.2752 147.439 36.2508 147.464 36.2313C147.489 36.2118 147.518 36.1977 147.549 36.1898L158.03 33.4897C158.309 33.6313 158.235 33.9207 158.038 33.9717Z" fill="#F2F2F2"/>
<path d="M158.344 35.1634L147.985 37.8332C147.926 37.8498 147.863 37.8432 147.808 37.8149C147.753 37.7865 147.711 37.7384 147.691 37.6803C147.681 37.65 147.678 37.6179 147.681 37.5862C147.684 37.5544 147.694 37.5237 147.709 37.4958C147.724 37.4679 147.745 37.4434 147.771 37.424C147.796 37.4045 147.825 37.3903 147.856 37.3824L158.337 34.6816C158.616 34.823 158.542 35.1123 158.344 35.1634Z" fill="#F2F2F2"/>
<path d="M158.651 36.356L148.292 39.0248C148.233 39.0414 148.169 39.0349 148.115 39.0065C148.06 38.9781 148.018 38.93 147.997 38.872C147.988 38.8416 147.984 38.8095 147.987 38.7778C147.991 38.746 148 38.7153 148.016 38.6874C148.031 38.6595 148.052 38.635 148.077 38.6155C148.103 38.596 148.131 38.5819 148.162 38.5741L158.643 35.874C158.922 36.0146 158.849 36.306 158.651 36.356Z" fill="#F2F2F2"/>
<path d="M147.711 47.3171C147.673 47.3269 147.634 47.3242 147.598 47.3093H147.595L147.124 47.1092C147.082 47.0896 147.048 47.054 147.031 47.0101C147.014 46.9662 147.015 46.9174 147.033 46.8741C147.052 46.8308 147.086 46.7963 147.13 46.7781C147.173 46.7599 147.222 46.7594 147.266 46.7766L147.571 46.9066L147.971 45.9649C147.98 45.9431 147.994 45.9233 148.01 45.9067C148.027 45.8901 148.047 45.877 148.069 45.8681C148.091 45.8592 148.115 45.8548 148.139 45.855C148.162 45.8552 148.186 45.8601 148.207 45.8694L148.205 45.8756L148.208 45.8694C148.252 45.8882 148.287 45.9237 148.304 45.9681C148.322 46.0125 148.322 46.0622 148.303 46.1062L147.833 47.2123C147.822 47.2378 147.805 47.2604 147.784 47.2785C147.763 47.2965 147.738 47.3095 147.711 47.3163V47.3171Z" fill="white"/>
<path d="M180.85 56.17L158.303 51.7831C157.539 51.6335 156.865 51.1865 156.429 50.5402C155.994 49.8939 155.832 49.1011 155.98 48.3357L161.126 21.8377C161.275 21.0727 161.722 20.3983 162.367 19.9624C163.013 19.5266 163.805 19.3649 164.57 19.5128L185.547 23.5942L189.311 28.0139L184.294 53.8448C184.145 54.6099 183.698 55.2843 183.053 55.7202C182.407 56.1562 181.615 56.3179 180.85 56.17Z" fill="#E6E6E6"/>
<path d="M164.409 20.3434C163.864 20.2381 163.3 20.3532 162.84 20.6636C162.38 20.974 162.062 21.4543 161.956 21.9991L156.81 48.4973C156.705 49.0423 156.82 49.6069 157.13 50.0671C157.44 50.5273 157.92 50.8456 158.465 50.9521L181.012 55.339C181.556 55.4444 182.12 55.3292 182.58 55.0188C183.04 54.7084 183.358 54.2282 183.464 53.6834L188.403 28.2524L185.094 24.3682L164.409 20.3434Z" fill="white"/>
<path d="M181.075 31.5811L170.809 29.584C170.682 29.5592 170.569 29.4849 170.497 29.3773C170.424 29.2698 170.398 29.1378 170.422 29.0104C170.447 28.8831 170.521 28.7708 170.629 28.6983C170.736 28.6257 170.868 28.5989 170.995 28.6236L181.261 30.6208C181.388 30.6456 181.501 30.7199 181.573 30.8274C181.646 30.935 181.672 31.067 181.648 31.1943C181.623 31.3217 181.549 31.434 181.441 31.5065C181.334 31.579 181.202 31.6059 181.075 31.5811Z" fill="#8480C3"/>
<path d="M182.74 33.5884L170.494 31.206C170.367 31.1813 170.255 31.1069 170.182 30.9994C170.11 30.8918 170.083 30.7598 170.107 30.6325C170.132 30.5052 170.206 30.3929 170.314 30.3203C170.421 30.2478 170.553 30.2209 170.681 30.2457L182.926 32.6281C183.054 32.6529 183.166 32.7272 183.238 32.8348C183.311 32.9423 183.338 33.0743 183.313 33.2016C183.288 33.329 183.214 33.4413 183.107 33.5138C182.999 33.5863 182.867 33.6132 182.74 33.5884Z" fill="#8480C3"/>
<path d="M179.849 37.8894L169.584 35.8922C169.457 35.8674 169.325 35.8943 169.217 35.9668C169.11 36.0393 169.035 36.1516 169.011 36.279C168.986 36.4063 169.013 36.5383 169.085 36.6459C169.158 36.7534 169.27 36.8278 169.397 36.8525L179.663 38.8497C179.79 38.8744 179.922 38.8476 180.03 38.7751C180.137 38.7025 180.211 38.5902 180.236 38.4629C180.261 38.3355 180.234 38.2036 180.161 38.096C180.089 37.9884 179.977 37.9141 179.849 37.8894Z" fill="#CCCCCC"/>
<path d="M181.515 39.8972L169.269 37.5147C169.142 37.49 169.01 37.5168 168.902 37.5894C168.795 37.6619 168.721 37.7742 168.696 37.9015C168.671 38.0289 168.698 38.1609 168.77 38.2684C168.843 38.376 168.955 38.4503 169.082 38.4751L181.328 40.8575C181.456 40.8822 181.587 40.8554 181.695 40.7828C181.802 40.7103 181.877 40.598 181.901 40.4707C181.926 40.3433 181.899 40.2114 181.827 40.1038C181.754 39.9962 181.642 39.9219 181.515 39.8972Z" fill="#CCCCCC"/>
<path d="M178.251 46.1192L167.985 44.122C167.858 44.0973 167.746 44.0229 167.673 43.9154C167.601 43.8078 167.574 43.6759 167.599 43.5485C167.623 43.4212 167.698 43.3089 167.805 43.2363C167.913 43.1638 168.044 43.137 168.172 43.1617L178.437 45.1589C178.565 45.1836 178.677 45.258 178.749 45.3655C178.822 45.4731 178.849 45.6051 178.824 45.7324C178.799 45.8597 178.725 45.972 178.617 46.0446C178.51 46.1171 178.378 46.144 178.251 46.1192Z" fill="#CCCCCC"/>
<path d="M179.916 48.1265L167.67 45.7441C167.543 45.7193 167.431 45.645 167.358 45.5375C167.286 45.4299 167.259 45.2979 167.284 45.1706C167.308 45.0432 167.383 44.9309 167.49 44.8584C167.598 44.7859 167.73 44.759 167.857 44.7838L180.103 47.1662C180.23 47.191 180.342 47.2653 180.415 47.3728C180.487 47.4804 180.514 47.6124 180.489 47.7397C180.465 47.8671 180.39 47.9794 180.283 48.0519C180.175 48.1244 180.043 48.1513 179.916 48.1265Z" fill="#CCCCCC"/>
<path d="M166.141 30.7819C167.078 30.9642 167.986 30.3517 168.168 29.4136C168.35 28.4756 167.738 27.5673 166.8 27.3849C165.863 27.2025 164.955 27.8151 164.773 28.7532C164.591 29.6912 165.203 30.5995 166.141 30.7819Z" fill="#8480C3"/>
<path d="M166.177 29.6988C166.138 29.6914 166.104 29.6717 166.078 29.6428L166.076 29.6409L165.736 29.2582C165.72 29.2406 165.706 29.2198 165.698 29.197C165.689 29.1743 165.686 29.1501 165.687 29.1258C165.688 29.1015 165.694 29.0777 165.704 29.0558C165.714 29.0338 165.729 29.0142 165.747 28.9981C165.765 28.982 165.787 28.9697 165.81 28.962C165.833 28.9543 165.857 28.9513 165.881 28.9532C165.905 28.9551 165.929 28.9619 165.951 28.9731C165.972 28.9843 165.991 28.9998 166.007 29.0185L166.227 29.2672L166.991 28.5888C167.009 28.5729 167.029 28.5607 167.052 28.5529C167.074 28.5451 167.098 28.5418 167.122 28.5433C167.146 28.5447 167.169 28.5509 167.191 28.5614C167.212 28.5719 167.231 28.5865 167.247 28.6045L167.242 28.6088L167.247 28.6046C167.279 28.6405 167.295 28.6875 167.293 28.7354C167.29 28.7832 167.268 28.8279 167.232 28.8597L166.331 29.6569C166.31 29.6753 166.285 29.6885 166.259 29.6957C166.232 29.703 166.204 29.7039 166.177 29.6985L166.177 29.6988Z" fill="white"/>
<path d="M166.93 36.717C166.887 36.9401 166.8 37.1525 166.675 37.3421C166.55 37.5316 166.388 37.6946 166.2 37.8217C166.012 37.9489 165.8 38.0376 165.578 38.083C165.355 38.1283 165.126 38.1294 164.903 38.086C164.888 38.0835 164.874 38.0801 164.86 38.0758C164.528 38.0021 164.225 37.8321 163.989 37.587C163.753 37.3419 163.595 37.0326 163.533 36.6979C163.472 36.3631 163.511 36.0178 163.645 35.705C163.779 35.3922 164.002 35.1259 164.286 34.9394C164.571 34.7529 164.904 34.6544 165.244 34.6564C165.584 34.6583 165.916 34.7605 166.198 34.9503C166.48 35.14 166.7 35.4089 166.831 35.7231C166.961 36.0374 166.996 36.3832 166.931 36.7172L166.93 36.717Z" fill="#8480C3"/>
<path d="M163.317 45.3204C164.254 45.5028 165.162 44.8902 165.344 43.9522C165.526 43.0142 164.914 42.1059 163.977 41.9235C163.039 41.7411 162.132 42.3537 161.949 43.2917C161.767 44.2298 162.38 45.1381 163.317 45.3204Z" fill="#8480C3"/>
<path d="M189.202 28.1104L185.712 27.4313C185.457 27.3818 185.233 27.2331 185.088 27.0179C184.943 26.8028 184.889 26.5388 184.938 26.2841L185.439 23.7045C185.441 23.693 185.447 23.6824 185.455 23.6738C185.463 23.6652 185.473 23.6591 185.484 23.6561C185.495 23.6532 185.507 23.6535 185.518 23.657C185.529 23.6606 185.539 23.6673 185.547 23.6762L189.26 28.0101C189.268 28.0198 189.273 28.0317 189.274 28.0443C189.275 28.0569 189.273 28.0696 189.266 28.0805C189.26 28.0914 189.25 28.1001 189.239 28.1054C189.227 28.1107 189.214 28.1122 189.202 28.1099L189.202 28.1104Z" fill="#E6E6E6"/>
<path d="M124.497 0H73.0318C72.2036 0 71.5322 0.671895 71.5322 1.50072V28.8058C71.5322 29.6347 72.2036 30.3065 73.0318 30.3065H124.497C125.325 30.3065 125.996 29.6347 125.996 28.8058V1.50072C125.996 0.671895 125.325 0 124.497 0Z" fill="#E6E6E6"/>
<path d="M124.109 1.05518H73.4748C72.9227 1.05518 72.4751 1.50311 72.4751 2.05566V28.3075C72.4751 28.8601 72.9227 29.308 73.4748 29.308H124.109C124.661 29.308 125.109 28.8601 125.109 28.3075V2.05566C125.109 1.50311 124.661 1.05518 124.109 1.05518Z" fill="white"/>
<path d="M117.984 24.5209H79.5445C79.5127 24.5209 79.4821 24.5082 79.4595 24.4857C79.437 24.4631 79.4243 24.4325 79.4243 24.4006V5.96174C79.4243 5.9298 79.437 5.89917 79.4596 5.87658C79.4821 5.854 79.5127 5.84131 79.5447 5.84131C79.5766 5.84131 79.6072 5.854 79.6297 5.87658C79.6523 5.89917 79.665 5.9298 79.665 5.96174V24.2803H117.984C118.016 24.2803 118.047 24.293 118.069 24.3156C118.092 24.3381 118.105 24.3688 118.105 24.4007C118.105 24.4327 118.092 24.4633 118.069 24.4859C118.047 24.5085 118.016 24.5212 117.984 24.5212V24.5209Z" fill="#3F3D56"/>
<path d="M87.7573 23.1964H84.261C84.1663 23.1962 84.0755 23.1585 84.0086 23.0915C83.9416 23.0245 83.9039 22.9337 83.9038 22.8389V18.0156C83.9039 17.9209 83.9416 17.83 84.0086 17.763C84.0755 17.696 84.1663 17.6583 84.261 17.6582H87.7571C87.8518 17.6583 87.9426 17.696 88.0096 17.763C88.0765 17.83 88.1142 17.9209 88.1142 18.0156V22.8389C88.1142 22.9337 88.0765 23.0246 88.0096 23.0916C87.9426 23.1586 87.852 23.1963 87.7573 23.1964Z" fill="#8480C3"/>
<path d="M94.1328 23.1966H90.6364C90.5417 23.1965 90.451 23.1588 90.384 23.0918C90.3171 23.0248 90.2794 22.9339 90.2793 22.8392V13.4404C90.2794 13.3457 90.3171 13.2548 90.384 13.1878C90.451 13.1208 90.5417 13.0831 90.6364 13.083H94.1326C94.2273 13.0831 94.3181 13.1207 94.385 13.1878C94.452 13.2548 94.4896 13.3457 94.4897 13.4404V22.8387C94.4896 22.9335 94.452 23.0243 94.385 23.0914C94.3181 23.1584 94.2273 23.196 94.1326 23.1961L94.1328 23.1966Z" fill="#8480C3"/>
<path d="M100.509 23.1964H97.0124C96.9177 23.1962 96.827 23.1585 96.76 23.0915C96.6931 23.0245 96.6554 22.9337 96.6553 22.8389V18.0156C96.6554 17.9209 96.6931 17.83 96.76 17.763C96.827 17.696 96.9177 17.6583 97.0124 17.6582H100.509C100.603 17.6583 100.694 17.696 100.761 17.763C100.828 17.83 100.866 17.9209 100.866 18.0156V22.8389C100.866 22.9337 100.828 23.0246 100.761 23.0916C100.694 23.1586 100.603 23.1963 100.509 23.1964H100.509Z" fill="#8480C3"/>
<path d="M106.885 23.1962H103.388C103.296 23.1981 103.206 23.1633 103.139 23.0994C103.073 23.0354 103.034 22.9476 103.031 22.855V11.6181C103.034 11.5255 103.073 11.4377 103.139 11.3737C103.206 11.3098 103.296 11.275 103.388 11.2769H106.885C106.977 11.275 107.067 11.3098 107.133 11.3737C107.2 11.4377 107.239 11.5255 107.242 11.6181V22.856C107.239 22.9485 107.2 23.0364 107.134 23.1003C107.067 23.1642 106.977 23.199 106.885 23.1972V23.1962Z" fill="#8480C3"/>
<path d="M113.26 23.1971H109.763C109.669 23.1971 109.578 23.1594 109.511 23.0924C109.444 23.0254 109.406 22.9345 109.406 22.8397V8.38477C109.406 8.29 109.444 8.19912 109.511 8.13211C109.578 8.06509 109.669 8.02741 109.763 8.02734H113.26C113.354 8.02741 113.445 8.06509 113.512 8.13211C113.579 8.19912 113.617 8.29 113.617 8.38477V22.8397C113.617 22.9345 113.579 23.0254 113.512 23.0924C113.445 23.1594 113.354 23.1971 113.26 23.1971Z" fill="#8480C3"/>
</g>
<defs>
<clipPath id="clip0_2021_286">
<rect width="190" height="200" fill="white"/>
</clipPath>
</defs>
</svg>
